<svg xmlns="http://www.w3.org/2000/svg" data-name="Layer 1" viewBox="0 0 100 125" x="0px" y="0px"><defs><style>.cls-1{fill-rule:evenodd;}</style></defs><path class="cls-1" d="M84.8,71.024,94.787,44.07l.033-.083a2.936,2.936,0,0,0,.141-1.472,2.059,2.059,0,0,0-.582-1.117,2.515,2.515,0,0,0-2.694-.547l-16.7,6.559a1.452,1.452,0,0,1-.869.341L53.532,55.834,84.8,71.024ZM28.776,45.793,48.4,29.064a2.612,2.612,0,0,1,1.65-.637A2.374,2.374,0,0,1,51.629,29l19.576,16.78L49.924,54.133l-21.148-8.34ZM49.927,57.307,79.293,71.574H20.68L49.927,57.307ZM15.185,71.021,46.322,55.832l-20.5-8.085a1.438,1.438,0,0,1-.776-.306L8.369,40.865a2.377,2.377,0,0,0-2.614.533,2.521,2.521,0,0,0-.595,2.684Z"/><text x="0" y="115" fill="#000000" font-size="5px" font-weight="bold" font-family="'Helvetica Neue', Helvetica, Arial-Unicode, Arial, Sans-serif">Created by claretta</text><text x="0" y="120" fill="#000000" font-size="5px" font-weight="bold" font-family="'Helvetica Neue', Helvetica, Arial-Unicode, Arial, Sans-serif">from the Noun Project</text></svg>